# xmcd
#
# Track frame offsets: 
#        150
#        15730
#        29723
#        44645
#        57995
#        73638
#        88075
#        102525
#        118038
#        132073
#        146390
#        160715
#        175113
#        188965
#        204490
#        219750
#        234108
#        262970
#        276448
#        292045
#
# Disc length: 4103 seconds
#
# Revision: 2
# Processed by: cddbd v1.5.1PL0 Copyright (c) Steve Scherf et al.
# Submitted via: ExactAudioCopy v0.95a5
#
DISCID=29100514
DTITLE=Bessie Smith - Empress of the Blues
DYEAR=1993
DGENRE=Blues
TTITLE0=Down hearted blues
TTITLE1=Gulf coast blues
TTITLE2=Aggravatin' papa
TTITLE3=Baby won't you please come home
TTITLE4='Tain't nobody's bizness if i do
TTITLE5=Whoa, Tillie, take your time
TTITLE6=My sweetie went away
TTITLE7=Any woman's blues
TTITLE8=House rent blues
TTITLE9=Weeping willow blues
TTITLE10=Sinful blues
TTITLE11=St. Louis blues
TTITLE12=Reckless blues
TTITLE13=Careless love blues
TTITLE14=I ain't gonna play no second fiddle
TTITLE15=I ain't got nobody
TTITLE16=Empty bed blues (parts 1 and 2)
TTITLE17=Nobody knows you when you're down and out
TTITLE18=Do your duty
TTITLE19=Gimme a pig foot
EXTD=
EXTT0=
EXTT1=
EXTT2=
EXTT3=
EXTT4=
EXTT5=
EXTT6=
EXTT7=
EXTT8=
EXTT9=
EXTT10=
EXTT11=
EXTT12=
EXTT13=
EXTT14=
EXTT15=
EXTT16=
EXTT17=
EXTT18=
EXTT19=
PLAYORDER=
